# Created by MKDS Course Modifier
mtllib CarRuined.mtl
g CarRuined
usemtl Tire
v 0.3908691 0.001953125 -0.9240723
v -0.2541504 0.001953125 -0.9240723
v 0.3908691 0.6469727 -0.9240723
v -0.3898926 0.001953125 -0.9240723
v -0.3898926 0.6469727 -0.9240723
vn 0 0 -1
vn 0 0 -1
vn 0 0 -1
vn 0 0 -1
vn 0 0 -1
vt 1 -0.8261719
vt 0.1738281 -0.8261719
vt 1 0
vt 0 -0.8261719
vt 0 0
f 1/1/1 2/2/2 3/3/3
f 2/2/2 4/4/4 3/3/3
f 3/3/3 4/4/4 5/5/5
v 0.3908691 0.001953125 -0.831543
v 0.3908691 0.6469727 -0.831543
v -0.2541504 0.001953125 -0.831543
v -0.3898926 0.6469727 -0.831543
v -0.3898926 0.001953125 -0.831543
vn 0 0 0.9980469
vn 0 0 0.9980469
vn 0 0 0.9980469
vn 0 0 0.9980469
vn 0 0 0.9980469
vt 1 -0.8261719
vt 1 0
vt 0.1738281 -0.8261719
vt 0 0
vt 0 -0.8261719
f 6/6/6 7/7/7 8/8/8
f 7/7/7 9/9/9 8/8/8
f 8/8/8 9/9/9 10/10/10
v 0.3908691 -0.02148438 0.8874512
v -0.3898926 -0.02148438 0.8874512
v -0.3898926 0.7592773 0.8874512
v 0.3908691 0.7592773 0.8874512
v 0.3908691 -0.02148438 0.9799805
v 0.3908691 0.7592773 0.9799805
v -0.3898926 0.7592773 0.9799805
v -0.3898926 -0.02148438 0.9799805
v -2.300049 -0.01953125 0.8874512
v -3.080811 -0.01953125 0.8874512
v -3.080811 0.7612305 0.8874512
v -2.300049 0.7612305 0.8874512
v -2.300049 -0.01953125 0.9799805
v -2.300049 0.7612305 0.9799805
v -3.080811 0.7612305 0.9799805
v -3.080811 -0.01953125 0.9799805
v -2.300049 -0.01586914 -0.9240723
v -3.080811 -0.01586914 -0.9240723
v -3.080811 0.7651367 -0.9240723
v -2.300049 0.7651367 -0.9240723
v -2.300049 -0.01586914 -0.831543
v -2.300049 0.7651367 -0.831543
v -3.080811 0.7651367 -0.831543
v -3.080811 -0.01586914 -0.831543
vn 0 0 -1
vn 0 0 -1
vn 0 0 -1
vn 0 0 -1
vn 0 0 0.9980469
vn 0 0 0.9980469
vn 0 0 0.9980469
vn 0 0 0.9980469
vn 0 0 -1
vn 0 0 -1
vn 0 0 -1
vn 0 0 -1
vn 0 0 0.9980469
vn 0 0 0.9980469
vn 0 0 0.9980469
vn 0 0 0.9980469
vn 0 0 -1
vn 0 0 -1
vn 0 0 -1
vn 0 0 -1
vn 0 0 0.9980469
vn 0 0 0.9980469
vn 0 0 0.9980469
vn 0 0 0.9980469
vt 1 -1
vt 0 -1
vt 0 0
vt 1 0
vt 1 -1
vt 1 0
vt 0 0
vt 0 -1
vt 1 -1
vt 0 -1
vt 0 0
vt 1 0
vt 1 -1
vt 1 0
vt 0 0
vt 0 -1
vt 1 -1
vt 0 -1
vt 0 0
vt 1 0
vt 1 -1
vt 1 0
vt 0 0
vt 0 -1
f 11/11/11 12/12/12 13/13/13 14/14/14
f 15/15/15 16/16/16 17/17/17 18/18/18
f 19/19/19 20/20/20 21/21/21 22/22/22
f 23/23/23 24/24/24 25/25/25 26/26/26
f 27/27/27 28/28/28 29/29/29 30/30/30
f 31/31/31 32/32/32 33/33/33 34/34/34
g CarRuined_1
usemtl CrashCarB
v -0.6408691 0.07568359 -0.9538574
v -2.259521 0.1867676 -0.9577637
v -0.3391113 0.4111328 -1.058105
v -2.420166 0.5541992 -1.063232
v -0.4516602 0.9204102 -0.8798828
v -2.737061 1.032959 -0.8994141
vn -0.01757813 -0.2832031 -0.9589844
vn -0.01757813 -0.2832031 -0.9589844
vn 0.01171875 0.1230469 -0.9921875
vn 0.01171875 0.1542969 -0.9882813
vn 0.1308594 0.859375 -0.4921875
vn -0.04101563 0.84375 -0.5351563
vt 0.3984375 -0.34375
vt 0.3984375 -0.6503906
vt 0.2871094 -0.2915039
vt 0.2871094 -0.6850586
vt 0.1401367 -0.3193359
vt 0.1533203 -0.7509766
f 35/35/35 36/36/36 37/37/37
f 36/36/36 38/38/38 37/37/37
f 37/37/37 38/38/38 39/39/39
f 38/38/38 40/40/40 39/39/39
v -2.249512 0.4072266 1.100342
v -0.6108398 0.2946777 1.104248
v -2.418457 0.7893066 1.127197
v -0.3115234 0.6445313 1.132324
v -2.727539 1.222168 0.8686523
v -0.4433594 1.105957 0.8515625
vn -0.0078125 -0.07421875 0.9980469
vn -0.0078125 -0.07421875 0.9980469
vn 0.02539063 0.421875 0.90625
vn 0.01367188 0.2441406 0.9707031
vn 0.0078125 0.984375 0.1796875
vn 0.1210938 0.8652344 0.4882813
vt 0.3984375 -0.6503906
vt 0.3984375 -0.3398438
vt 0.2871094 -0.6870117
vt 0.2871094 -0.2880859
vt 0.1533203 -0.7509766
vt 0.1401367 -0.3193359
f 41/41/41 42/42/42 43/43/43
f 42/42/42 44/44/44 43/43/43
f 43/43/43 44/44/44 45/45/45
f 44/44/44 46/46/46 45/45/45
v 0.9992676 0.7648926 -0.8137207
v 1.1875 0.1557617 -0.7663574
v 0.2580566 0.3701172 -1.056641
v 0.4880371 0.02246094 -0.7229004
vn 0.5625 0.7519531 -0.3417969
vn 0.8261719 0.05859375 -0.5605469
vn 0.1484375 0.09765625 -0.984375
vn 0.08007813 -0.6621094 -0.7441406
vt 0.1547852 -0.04394531
vt 0.3422852 -0.0004882813
vt 0.2871094 -0.1782227
vt 0.3984375 -0.1303711
f 47/47/47 48/48/48 49/49/49
f 48/48/48 50/50/50 49/49/49
v -3.307617 0.4797363 1.097656
v -3 0.8293457 1.125732
v -4.073975 0.8554688 1.151855
v -3.934814 1.28418 0.8679199
vn 0.02148438 -0.09960938 0.9941406
vn 0.03125 0.3574219 0.9335938
vn 0.03125 0.296875 0.9550781
vn 0.05078125 0.9472656 0.3164063
vt 0.3984375 -0.8505859
vt 0.2871094 -0.796875
vt 0.3022461 -0.9995117
vt 0.159668 -0.9790039
f 51/51/51 52/52/52 53/53/53
f 52/52/52 54/54/54 53/53/53
v -3.317627 0.2595215 -0.9604492
v -4.084961 0.6157227 -1.085449
v -3.024902 0.5957031 -1.064697
v -3.943359 1.094971 -0.9001465
vn 0.01367188 -0.3066406 -0.9511719
vn 0.02148438 0.08789063 -0.9960938
vn 0.0234375 0.1542969 -0.9882813
vn 0.04882813 0.9355469 -0.3515625
vt 0.3984375 -0.8505859
vt 0.3022461 -0.9995117
vt 0.2871094 -0.7998047
vt 0.159668 -0.9790039
f 55/55/55 56/56/56 57/57/57
f 56/56/56 58/58/58 57/57/57
v 1.007568 0.947998 0.8959961
v 0.2756348 0.604248 1.133789
v 1.197266 0.3601074 0.9416504
v 0.5161133 0.192627 0.8791504
vn 0.2851563 0.9550781 0.08789063
vn 0.09960938 0.2460938 0.9648438
vn 0.9257813 0.2246094 0.3066406
vn 0.04492188 -0.5058594 0.8613281
vt 0.1547852 -0.04394531
vt 0.2871094 -0.1772461
vt 0.3354492 -0.0004882813
vt 0.3984375 -0.1264648
f 59/59/59 60/60/60 61/61/61
f 60/60/60 62/62/62 61/61/61
v -0.8239746 1.40625 -0.8076172
v -0.4516602 0.9204102 -0.8798828
v -2.361328 1.511719 -0.8112793
v -2.737061 1.032959 -0.8994141
v -2.737061 1.032959 -0.8994141
vn 0.7871094 0.6132813 -0.0703125
vn 0.1308594 0.859375 -0.4921875
vn -0.7792969 0.6230469 -0.0625
vn -0.04101563 0.84375 -0.5351563
vn -0.04101563 0.84375 -0.5351563
vt 0.002929688 -0.3989258
vt 0.1401367 -0.3193359
vt 0.002929688 -0.6865234
vt 0.1533203 -0.7509766
vt 0.1533203 -0.7509766
f 63/63/63 64/64/64 65/65/65
f 64/64/64 66/66/66 65/65/65
f 65/65/65 66/66/66 67/67/67
v -2.354248 1.671143 0.6777344
v -2.727539 1.222168 0.8686523
v -0.8166504 1.565674 0.6813965
v -0.4433594 1.105957 0.8515625
v -0.4433594 1.105957 0.8515625
vn -0.7792969 0.6230469 -0.0625
vn 0.0078125 0.984375 0.1796875
vn 0.7871094 0.6132813 -0.0703125
vn 0.1210938 0.8652344 0.4882813
vn 0.1210938 0.8652344 0.4882813
vt 0.002929688 -0.6865234
vt 0.1533203 -0.7509766
vt 0.002929688 -0.3989258
vt 0.1401367 -0.3193359
vt 0.1401367 -0.3193359
f 68/68/68 69/69/69 70/70/70
f 69/69/69 71/71/71 70/70/70
f 70/70/70 71/71/71 72/72/72
v -2.355713 1.638428 0.3723145
v -2.730225 1.168945 0.3713379
v -2.354248 1.671143 0.6777344
v -2.727539 1.222168 0.8686523
vn -0.7792969 0.6230469 -0.0625
vn -0.7792969 0.6230469 -0.0625
vn -0.7792969 0.6230469 -0.0625
vn 0.0078125 0.984375 0.1796875
vt 0.5258789 -0.5581055
vt 0.5678711 -0.440918
vt 0.4125977 -0.5581055
vt 0.4125977 -0.4414063
f 73/73/73 74/74/74 75/75/75
f 74/74/74 76/76/76 75/75/75
v -2.730225 1.168945 0.3713379
v -2.428223 1.547607 0.3720703
v -2.727539 1.222168 0.8686523
v -2.354248 1.671143 0.6777344
vn 0.7792969 -0.6230469 0.0625
vn 0.7792969 -0.6230469 0.0625
vn 0.7792969 -0.6230469 0.0625
vn 0.7792969 -0.6230469 0.0625
vt 0.5678711 -0.440918
vt 0.5195313 -0.5351563
vt 0.4125977 -0.4414063
vt 0.4125977 -0.5581055
f 77/77/77 78/78/78 79/79/79
f 78/78/78 80/80/80 79/79/79
v -0.4516602 0.9204102 -0.8798828
v -0.8239746 1.40625 -0.8076172
v -0.4487305 0.9831543 -0.2927246
v -0.8222656 1.44458 -0.447998
vn 0.1308594 0.859375 -0.4921875
vn 0.7871094 0.6132813 -0.0703125
vn 0.7871094 0.6132813 -0.0703125
vn 0.7871094 0.6132813 -0.0703125
vt 0.4018555 -0.2250977
vt 0.4018555 -0.434082
vt 0.6030273 -0.2250977
vt 0.5454102 -0.434082
f 81/81/81 82/82/82 83/83/83
f 82/82/82 84/84/84 83/83/83
v -0.8239746 1.40625 -0.8076172
v -0.4516602 0.9204102 -0.8798828
v -0.7329102 1.334473 -0.4108887
v -0.4487305 0.9831543 -0.2927246
vn -0.7871094 -0.6132813 0.0703125
vn -0.7871094 -0.6132813 0.0703125
vn -0.7871094 -0.6132813 0.0703125
vn -0.7871094 -0.6132813 0.0703125
vt 0.4018555 -0.434082
vt 0.4018555 -0.2250977
vt 0.5439453 -0.3837891
vt 0.6030273 -0.2250977
f 85/85/85 86/86/86 87/87/87
f 86/86/86 88/88/88 87/87/87
v -2.249512 0.4072266 1.100342
v -2.418457 0.7893066 1.127197
v -2.420166 0.5541992 -1.063232
v -2.259521 0.1867676 -0.9577637
v 0.5161133 0.192627 0.8791504
v 0.2756348 0.604248 1.133789
v 0.2580566 0.3701172 -1.056641
v 0.4880371 0.02246094 -0.7229004
v -2.737061 1.032959 -0.8994141
v -3.943359 1.094971 -0.9001465
v -3.934814 1.28418 0.8679199
v -2.727539 1.222168 0.8686523
v -4.073975 0.8554688 1.151855
v -3.934814 1.28418 0.8679199
v -3.943359 1.094971 -0.9001465
v -4.084961 0.6157227 -1.085449
v 0.9992676 0.7648926 -0.8137207
v -0.4516602 0.9204102 -0.8798828
v -0.4433594 1.105957 0.8515625
v 1.007568 0.947998 0.8959961
v -4.084961 0.6157227 -1.085449
v -3.317627 0.2595215 -0.9604492
v -3.307617 0.4797363 1.097656
v -4.073975 0.8554688 1.151855
v 1.007568 0.947998 0.8959961
v 1.197266 0.3601074 0.9416504
v 1.1875 0.1557617 -0.7663574
v 0.9992676 0.7648926 -0.8137207
v -0.6408691 0.07568359 -0.9538574
v -0.3391113 0.4111328 -1.058105
v -0.3115234 0.6445313 1.132324
v -0.6108398 0.2946777 1.104248
v -3.317627 0.2595215 -0.9604492
v -3.024902 0.5957031 -1.064697
v -3 0.8293457 1.125732
v -3.307617 0.4797363 1.097656
v 1.007568 0.947998 0.8959961
v -0.4433594 1.105957 0.8515625
v -0.3115234 0.6445313 1.132324
v 0.2756348 0.604248 1.133789
v -3.024902 0.5957031 -1.064697
v -3.943359 1.094971 -0.9001465
v -2.737061 1.032959 -0.8994141
v -2.420166 0.5541992 -1.063232
v -2.727539 1.222168 0.8686523
v -3.934814 1.28418 0.8679199
v -3 0.8293457 1.125732
v -2.418457 0.7893066 1.127197
v -0.3391113 0.4111328 -1.058105
v -0.4516602 0.9204102 -0.8798828
v 0.9992676 0.7648926 -0.8137207
v 0.2580566 0.3701172 -1.056641
v 0.4880371 0.02246094 -0.7229004
v 1.1875 0.1557617 -0.7663574
v 1.197266 0.3601074 0.9416504
v 0.5161133 0.192627 0.8791504
v -2.737061 1.032959 -0.8994141
v -2.727539 1.222168 0.8686523
v -0.4433594 1.105957 0.8515625
v -0.4516602 0.9204102 -0.8798828
v -0.8181152 1.532959 0.3762207
v -0.8166504 1.565674 0.6813965
v -0.4433594 1.105957 0.8515625
v -0.4455566 1.054932 0.3769531
v -0.8181152 1.532959 0.3762207
v -0.5522461 1.19165 0.376709
v -0.4433594 1.105957 0.8515625
v -0.8166504 1.565674 0.6813965
v -2.737061 1.032959 -0.8994141
v -2.733643 1.098633 -0.2836914
v -2.359619 1.550293 -0.4519043
v -2.361328 1.511719 -0.8112793
v -2.737061 1.032959 -0.8994141
v -2.361328 1.511719 -0.8112793
v -2.359619 1.550293 -0.4519043
v -2.602051 1.258057 -0.3430176
vn -0.9121094 -0.40625 0.04882813
vn -0.9160156 -0.3984375 0.04492188
vn -0.9199219 -0.390625 0.04296875
vn -0.9160156 -0.3984375 0.04492188
vn -0.8417969 -0.5351563 0.07226563
vn -0.8515625 -0.5214844 0.06640625
vn -0.859375 -0.5097656 0.06054688
vn -0.8515625 -0.5214844 0.06640625
vn -0.04101563 0.84375 -0.5351563
vn 0.04882813 0.9355469 -0.3515625
vn 0.05078125 0.9472656 0.3164063
vn 0.0078125 0.984375 0.1796875
vn -0.9550781 0.2929688 -0.02734375
vn -0.9550781 0.2929688 -0.02734375
vn -0.9550781 0.2929688 -0.02734375
vn -0.9550781 0.2929688 -0.02734375
vn 0.5625 0.7519531 -0.3417969
vn 0.1308594 0.859375 -0.4921875
vn 0.1210938 0.8652344 0.4882813
vn 0.2851563 0.9550781 0.08789063
vn -0.4316406 -0.8964844 0.09765625
vn -0.4316406 -0.8964844 0.09765625
vn -0.4316406 -0.8964844 0.09765625
vn -0.4316406 -0.8964844 0.09765625
vn 0.2851563 0.9550781 0.08789063
vn 0.9257813 0.2246094 0.3066406
vn 0.8261719 0.05859375 -0.5605469
vn 0.5625 0.7519531 -0.3417969
vn 0.7519531 -0.6582031 0.05859375
vn 0.7539063 -0.6542969 0.05859375
vn 0.7558594 -0.6503906 0.06054688
vn 0.7539063 -0.6542969 0.05859375
vn 0.7617188 -0.6445313 0.06445313
vn 0.7539063 -0.6542969 0.06445313
vn 0.7460938 -0.6621094 0.0625
vn 0.7539063 -0.6542969 0.06445313
vn 0.2851563 0.9550781 0.08789063
vn 0.1210938 0.8652344 0.4882813
vn 0.01367188 0.2441406 0.9707031
vn 0.09960938 0.2460938 0.9648438
vn 0.0234375 0.1542969 -0.9882813
vn 0.04882813 0.9355469 -0.3515625
vn -0.04101563 0.84375 -0.5351563
vn 0.01171875 0.1542969 -0.9882813
vn 0.0078125 0.984375 0.1796875
vn 0.05078125 0.9472656 0.3164063
vn 0.03125 0.3574219 0.9335938
vn 0.02539063 0.421875 0.90625
vn 0.01171875 0.1230469 -0.9921875
vn 0.1308594 0.859375 -0.4921875
vn 0.5625 0.7519531 -0.3417969
vn 0.1484375 0.09765625 -0.984375
vn 0.1914063 -0.9765625 0.09960938
vn 0.1914063 -0.9765625 0.09960938
vn 0.2265625 -0.9667969 0.1152344
vn 0.1914063 -0.9765625 0.09960938
vn 0.05078125 0.9921875 -0.1074219
vn 0.05078125 0.9921875 -0.1074219
vn 0.05078125 0.9921875 -0.1074219
vn 0.05078125 0.9921875 -0.1074219
vn 0.7871094 0.6132813 -0.0703125
vn 0.7871094 0.6132813 -0.0703125
vn 0.1210938 0.8652344 0.4882813
vn 0.7871094 0.6132813 -0.0703125
vn -0.7871094 -0.6132813 0.0703125
vn -0.7871094 -0.6132813 0.0703125
vn -0.7871094 -0.6132813 0.0703125
vn -0.7871094 -0.6132813 0.0703125
vn -0.04101563 0.84375 -0.5351563
vn -0.7792969 0.6230469 -0.0625
vn -0.7792969 0.6230469 -0.0625
vn -0.7792969 0.6230469 -0.0625
vn 0.7792969 -0.6230469 0.0625
vn 0.7792969 -0.6230469 0.0625
vn 0.7792969 -0.6230469 0.0625
vn 0.7792969 -0.6230469 0.0625
vt 0.8291016 -0.8916016
vt 0.8291016 -0.8154297
vt 0.5830078 -0.8168945
vt 0.5830078 -0.8916016
vt 0.8291016 -0.890625
vt 0.8291016 -0.8154297
vt 0.5830078 -0.8149414
vt 0.5830078 -0.890625
vt 0.4013672 -0.5644531
vt 0.4013672 -0.7910156
vt 0.9946289 -0.7910156
vt 0.9946289 -0.5644531
vt 0.9985352 -0.1445313
vt 0.9990234 -0.004882813
vt 0.4086914 -0.004882813
vt 0.4077148 -0.1445313
vt 0.9941406 -0.8105469
vt 0.9941406 -0.5673828
vt 0.4013672 -0.5683594
vt 0.4018555 -0.8105469
vt 0.4077148 -0.1445313
vt 0.4082031 -0.2358398
vt 1.000977 -0.2358398
vt 0.9985352 -0.1445313
vt 0.4121094 -0.8100586
vt 0.4125977 -0.9902344
vt 0.9931641 -0.9912109
vt 0.9956055 -0.8125
vt 0.5830078 -0.8154297
vt 0.5830078 -0.8925781
vt 0.8291016 -0.8911133
vt 0.8291016 -0.8154297
vt 0.5830078 -0.8149414
vt 0.5830078 -0.8896484
vt 0.8291016 -0.890625
vt 0.8291016 -0.8149414
vt 0.1547852 -0.04394531
vt 0.1401367 -0.3193359
vt 0.2871094 -0.2880859
vt 0.2871094 -0.1772461
vt 0.2871094 -0.7998047
vt 0.159668 -0.9790039
vt 0.1533203 -0.7509766
vt 0.2871094 -0.6850586
vt 0.1533203 -0.7509766
vt 0.159668 -0.9790039
vt 0.2871094 -0.796875
vt 0.2871094 -0.6870117
vt 0.2871094 -0.2915039
vt 0.1401367 -0.3193359
vt 0.1547852 -0.04394531
vt 0.2871094 -0.1782227
vt 0.9541016 -1.00293
vt 0.9711914 -0.9560547
vt 0.4306641 -0.9511719
vt 0.4467773 -1.00293
vt 0.004394531 -0.004882813
vt 0.004394531 -0.2456055
vt 0.1186523 -0.2456055
vt 0.1186523 -0.005859375
vt 0.8745117 -0.434082
vt 0.996582 -0.434082
vt 0.9956055 -0.2250977
vt 0.8330078 -0.2250977
vt 0.8745117 -0.434082
vt 0.8256836 -0.284668
vt 0.9956055 -0.2250977
vt 0.996582 -0.434082
vt 0.9643555 -0.440918
vt 0.7719727 -0.440918
vt 0.8310547 -0.5581055
vt 0.9643555 -0.5581055
vt 0.9643555 -0.440918
vt 0.9643555 -0.5581055
vt 0.8310547 -0.5581055
vt 0.7695313 -0.4824219
f 89/89/89 90/90/90 91/91/91 92/92/92
f 93/93/93 94/94/94 95/95/95 96/96/96
f 97/97/97 98/98/98 99/99/99 100/100/100
f 101/101/101 102/102/102 103/103/103 104/104/104
f 105/105/105 106/106/106 107/107/107 108/108/108
f 109/109/109 110/110/110 111/111/111 112/112/112
f 113/113/113 114/114/114 115/115/115 116/116/116
f 117/117/117 118/118/118 119/119/119 120/120/120
f 121/121/121 122/122/122 123/123/123 124/124/124
f 125/125/125 126/126/126 127/127/127 128/128/128
f 129/129/129 130/130/130 131/131/131 132/132/132
f 133/133/133 134/134/134 135/135/135 136/136/136
f 137/137/137 138/138/138 139/139/139 140/140/140
f 141/141/141 142/142/142 143/143/143 144/144/144
f 145/145/145 146/146/146 147/147/147 148/148/148
f 149/149/149 150/150/150 151/151/151 152/152/152
f 153/153/153 154/154/154 155/155/155 156/156/156
f 157/157/157 158/158/158 159/159/159 160/160/160
f 161/161/161 162/162/162 163/163/163 164/164/164
v -0.4516602 0.9204102 -0.8798828
v -0.8239746 1.40625 -0.8076172
v -2.361328 1.511719 -0.8112793
v -2.727539 1.222168 0.8686523
v -2.354248 1.671143 0.6777344
v -0.8166504 1.565674 0.6813965
v -0.4455566 1.054932 0.3769531
v -0.4433594 1.105957 0.8515625
v -0.5522461 1.19165 0.376709
v -2.355713 1.638428 0.3723145
v -2.354248 1.671143 0.6777344
v -2.428223 1.547607 0.3720703
v -0.8222656 1.44458 -0.447998
v -0.8239746 1.40625 -0.8076172
v -0.7329102 1.334473 -0.4108887
v -2.733643 1.098633 -0.2836914
v -2.737061 1.032959 -0.8994141
v -2.602051 1.258057 -0.3430176
vn 0.1308594 0.859375 -0.4921875
vn 0.7871094 0.6132813 -0.0703125
vn -0.7792969 0.6230469 -0.0625
vn 0.0078125 0.984375 0.1796875
vn -0.7792969 0.6230469 -0.0625
vn 0.7871094 0.6132813 -0.0703125
vn -0.7871094 -0.6132813 0.0703125
vn -0.7871094 -0.6132813 0.0703125
vn -0.7871094 -0.6132813 0.0703125
vn 0.7792969 -0.6230469 0.0625
vn 0.7792969 -0.6230469 0.0625
vn 0.7792969 -0.6230469 0.0625
vn -0.7871094 -0.6132813 0.0703125
vn -0.7871094 -0.6132813 0.0703125
vn -0.7871094 -0.6132813 0.0703125
vn 0.7792969 -0.6230469 0.0625
vn 0.7792969 -0.6230469 0.0625
vn 0.7792969 -0.6230469 0.0625
vt 0.1401367 -0.3193359
vt 0.002929688 -0.3989258
vt 0.002929688 -0.6865234
vt 0.1533203 -0.7509766
vt 0.002929688 -0.6865234
vt 0.002929688 -0.3989258
vt 0.8330078 -0.2250977
vt 0.9956055 -0.2250977
vt 0.8256836 -0.284668
vt 0.5258789 -0.5581055
vt 0.4125977 -0.5581055
vt 0.5195313 -0.5351563
vt 0.5454102 -0.434082
vt 0.4018555 -0.434082
vt 0.5439453 -0.3837891
vt 0.7719727 -0.440918
vt 0.9643555 -0.440918
vt 0.7695313 -0.4824219
f 165/165/165 166/166/166 167/167/167
f 168/168/168 169/169/169 170/170/170
f 171/171/171 172/172/172 173/173/173
f 174/174/174 175/175/175 176/176/176
f 177/177/177 178/178/178 179/179/179
f 180/180/180 181/181/181 182/182/182
